<svg width="42" height="41" viewBox="0 0 42 41" fill="none" xmlns="http://www.w3.org/2000/svg">
<rect x="0.746094" y="0.527344" width="40" height="39" rx="3.5" fill="#E9ECEF" stroke="#E3EBF2"/>
<path fill-rule="evenodd" clip-rule="evenodd" d="M25.5353 13.2703V10.7813C25.5353 10.4603 25.7957 10.1939 26.1166 10.1939C26.4376 10.1939 26.698 10.4573 26.698 10.7813V13.2703C26.698 13.5913 26.4376 13.8547 26.1166 13.8547C25.7957 13.8547 25.5353 13.5913 25.5353 13.2703ZM15.6761 13.1038V10.6057C15.6761 10.2847 15.9395 10.0273 16.2605 10.0273C16.5814 10.0273 16.8419 10.2847 16.8419 10.6057V13.1038C16.8419 13.4248 16.5814 13.6822 16.2605 13.6822C15.9395 13.6822 15.6761 13.4248 15.6761 13.1038ZM17.4293 11.8956C17.4293 11.5747 17.6897 11.3173 18.0107 11.3173H24.4724C24.7934 11.3173 25.0568 11.5747 25.0568 11.8956C25.0568 12.2166 24.7964 12.4831 24.4724 12.4831H18.0107C17.6897 12.4831 17.4293 12.2196 17.4293 11.8956ZM12.4088 16.6345H30.0803V12.8949C30.0803 12.6647 29.8956 12.48 29.6655 12.48H27.8729C27.5519 12.48 27.2915 12.2136 27.2915 11.8926C27.2915 11.5716 27.5519 11.3142 27.8729 11.3142H29.6655C30.5375 11.3142 31.2461 12.0228 31.2461 12.8949V28.2802C31.2461 28.8767 30.7616 29.3612 30.1651 29.3612H12.3271C11.7306 29.3612 11.2461 28.8767 11.2461 28.2802V12.8949C11.2461 12.0228 11.9546 11.3142 12.8267 11.3142H14.6193C14.9403 11.3142 15.2007 11.5716 15.2007 11.8926C15.2007 12.2136 14.9403 12.48 14.6193 12.48H12.8267C12.5966 12.48 12.4119 12.6647 12.4119 12.8949V16.6345H12.4088ZM30.0803 28.1954V17.7972H12.4088V28.1954H30.0803ZM18.7465 22.3907C18.2317 22.3907 17.8138 21.9759 17.8138 21.4611V20.2257C17.8138 19.7109 18.2317 19.2961 18.7465 19.2961H19.9758C20.4906 19.2961 20.9085 19.7109 20.9085 20.2257V21.4611C20.9085 21.9759 20.4906 22.3907 19.9758 22.3907H18.7465ZM22.586 22.3907C22.0712 22.3907 21.6534 21.9759 21.6534 21.4611V20.2257C21.6534 19.7109 22.0712 19.2961 22.586 19.2961H23.8184C24.3331 19.2961 24.751 19.7109 24.751 20.2257V21.4611C24.751 21.9759 24.3331 22.3907 23.8184 22.3907H22.586ZM26.2408 22.3907C25.726 22.3907 25.3082 21.9759 25.3082 21.4611V20.2257C25.3082 19.7109 25.726 19.2961 26.2408 19.2961H27.4732C27.988 19.2961 28.4058 19.7109 28.4058 20.2257V21.4611C28.4058 21.9759 27.988 22.3907 27.4732 22.3907H26.2408ZM15.016 26.0455C14.5012 26.0455 14.0833 25.6276 14.0833 25.1129V23.8805C14.0833 23.3657 14.5012 22.9509 15.016 22.9509H16.2484C16.7631 22.9509 17.181 23.3657 17.181 23.8805V25.1129C17.181 25.6276 16.7631 26.0455 16.2484 26.0455H15.016ZM18.7465 26.0455C18.2317 26.0455 17.8138 25.6276 17.8138 25.1129V23.8805C17.8138 23.3657 18.2347 22.9509 18.7465 22.9509H19.9758C20.4906 22.9509 20.9085 23.3657 20.9085 23.8805V25.1129C20.9085 25.6276 20.4906 26.0455 19.9758 26.0455H18.7465ZM22.586 26.0455C22.0712 26.0455 21.6534 25.6276 21.6534 25.1129V23.8805C21.6534 23.3657 22.0712 22.9509 22.586 22.9509H23.8184C24.3331 22.9509 24.751 23.3657 24.751 23.8805V25.1129C24.751 25.6276 24.3331 26.0455 23.8184 26.0455H22.586ZM18.9766 20.4588V21.2249H19.7427V20.4588H18.9766ZM22.8191 20.4588V21.2249H23.5852V20.4588H22.8191ZM26.474 20.4588V21.2249H27.24V20.4588H26.474ZM15.2491 24.1136V24.8797H16.0152V24.1136H15.2491ZM18.9766 24.1136V24.8797H19.7427V24.1136H18.9766ZM22.8191 24.1136V24.8797H23.5852V24.1136H22.8191Z" fill="#727B84"/>
</svg>
