<svg width="42" height="41" viewBox="0 0 42 41" fill="none" xmlns="http://www.w3.org/2000/svg">
<rect x="0.746094" y="0.527344" width="40" height="39" rx="3.5" fill="#E9ECEF" stroke="#E3EBF2"/>
<path d="M22.534 20.8002C22.495 20.8467 22.456 20.8467 22.417 20.8002C22.3975 20.7796 22.3927 20.7537 22.3927 20.7383C22.3927 20.7124 22.4024 20.6918 22.417 20.6763C22.4365 20.6608 22.456 20.6505 22.4755 20.6505C22.4902 20.6505 22.5145 20.6557 22.534 20.6763C22.5682 20.7124 22.5682 20.7692 22.534 20.8002ZM26.5264 15.8338L22.8753 19.4166C22.7436 19.3702 22.612 19.3443 22.4707 19.3443C22.2806 19.3443 22.0953 19.3908 21.9247 19.4734L19.5118 17.238C19.2534 17.0005 18.8634 17.0263 18.6392 17.2999C18.415 17.5736 18.4393 17.9866 18.6977 18.2241L21.174 20.5214C21.1594 20.5989 21.1496 20.6763 21.1496 20.7486C21.1496 21.1203 21.291 21.4714 21.5396 21.7346C21.7833 21.9979 22.1148 22.1425 22.4707 22.1425C22.8265 22.1425 23.1531 21.9979 23.4017 21.7346C23.7527 21.3629 23.8551 20.8363 23.7332 20.3614L27.3648 16.7992C27.6134 16.5514 27.628 16.1384 27.3989 15.8751C27.1649 15.6118 26.775 15.5963 26.5264 15.8389V15.8338ZM22.612 28.5493C18.3906 28.5493 14.9589 24.9097 14.9589 20.444C14.9589 15.9783 18.3906 12.3387 22.612 12.3387C26.8286 12.3387 30.2652 15.9783 30.2652 20.444C30.2652 24.9148 26.8286 28.5493 22.612 28.5493ZM22.612 11.0273C17.7081 11.0273 13.7207 15.2504 13.7207 20.4388C13.7207 25.6273 17.7081 29.8555 22.612 29.8555C27.511 29.8555 31.4985 25.6324 31.4985 20.4388C31.4985 15.2504 27.511 11.0273 22.612 11.0273Z" fill="#727B84"/>
</svg>
