<svg width="60" height="42" viewBox="0 0 60 42" fill="none" xmlns="http://www.w3.org/2000/svg">
<rect width="60" height="42" fill="#0092CB"/>
<path d="M35.25 19.875C34.596 19.8739 33.9544 20.0437 33.3957 20.3656C32.837 20.6876 32.3828 21.1492 32.083 21.6998C31.7832 22.2505 31.6495 22.8687 31.6965 23.4866C31.7435 24.1046 31.9695 24.6983 32.3495 25.2024L29.3125 28.0796L30.1521 28.875L33.1891 25.9978C33.6459 26.3054 34.1729 26.5065 34.7272 26.5848C35.2815 26.663 35.8475 26.6162 36.3792 26.4482C36.9108 26.2801 37.393 25.9955 37.7866 25.6176C38.1803 25.2396 38.4742 24.779 38.6444 24.2732C38.8147 23.7673 38.8565 23.2305 38.7665 22.7065C38.6765 22.1824 38.4572 21.6859 38.1264 21.2573C37.7956 20.8287 37.3627 20.4801 36.8629 20.2399C36.363 19.9997 35.8104 19.8747 35.25 19.875ZM35.25 25.5C34.7803 25.5 34.3211 25.368 33.9305 25.1208C33.54 24.8736 33.2355 24.5222 33.0558 24.111C32.876 23.6999 32.829 23.2475 32.9206 22.8111C33.0123 22.3746 33.2385 21.9737 33.5706 21.659C33.9028 21.3443 34.326 21.1301 34.7867 21.0432C35.2474 20.9564 35.7249 21.001 36.1589 21.1713C36.5928 21.3416 36.9638 21.63 37.2247 22C37.4857 22.37 37.625 22.805 37.625 23.25C37.6242 23.8465 37.3737 24.4184 36.9285 24.8402C36.4833 25.262 35.8796 25.4993 35.25 25.5Z" fill="#FDFDFD"/>
<path d="M32.0094 16.2322L32.34 15.8833L32.0094 16.2322C32.1867 16.4002 32.3042 16.6109 32.3514 16.836C32.3987 17.0609 32.3747 17.2943 32.2813 17.508C32.1877 17.722 32.0272 17.9094 31.8159 18.0431C31.6044 18.177 31.3531 18.25 31.094 18.25C30.7458 18.2496 30.417 18.1182 30.1786 17.8923C29.9411 17.6673 29.8129 17.3681 29.8125 17.0622C29.8126 16.8337 29.884 16.6078 30.0213 16.4132C30.1589 16.218 30.3574 16.062 30.5947 15.9689C30.8322 15.8757 31.0949 15.851 31.3487 15.8988C31.6023 15.9466 31.8318 16.064 32.0094 16.2322ZM31.691 16.1723L31.4236 16.5948L31.691 16.1723C31.512 16.059 31.3042 16 31.0938 16C30.8121 16 30.537 16.1057 30.33 16.3018C30.1222 16.4987 30 16.7717 30 17.0625C30 17.2789 30.0679 17.4879 30.1915 17.6632C30.3148 17.8381 30.4872 17.9705 30.6839 18.0476C30.8804 18.1247 31.0952 18.1445 31.3022 18.1055C31.5092 18.0665 31.7029 17.9696 31.8575 17.8232L31.5295 17.477L31.8575 17.8232C32.0123 17.6766 32.121 17.4863 32.1654 17.275C32.2098 17.0634 32.1868 16.8444 32.1004 16.6469C32.0143 16.4498 31.8703 16.2858 31.691 16.1723Z" fill="#FDFDFD" stroke="#FDFDFD"/>
<path d="M28.125 25.5H23.375V22.1233L26.3438 19.3125L29.6604 22.4546L30.5 21.657L27.1833 18.5154C26.9606 18.3045 26.6586 18.1861 26.3438 18.1861C26.0289 18.1861 25.7269 18.3045 25.5042 18.5154L23.375 20.532V14.25H35.25V17.625H36.4375V14.25C36.4372 13.9517 36.312 13.6657 36.0893 13.4548C35.8667 13.2439 35.5648 13.1253 35.25 13.125H23.375C23.0602 13.1253 22.7583 13.2439 22.5357 13.4548C22.313 13.6657 22.1878 13.9517 22.1875 14.25V25.5C22.1878 25.7983 22.313 26.0843 22.5357 26.2952C22.7583 26.5061 23.0602 26.6247 23.375 26.625H28.125V25.5Z" fill="#FDFDFD"/>
</svg>
