<svg width="18" height="20" viewBox="0 0 18 20" fill="none" xmlns="http://www.w3.org/2000/svg">
<path d="M12.999 6.71542L15.7052 9.45332H5.28069C4.97963 9.45332 4.73442 9.69852 4.73442 10.0004C4.73442 10.3023 4.97963 10.5466 5.28069 10.5466H15.7052L12.999 13.2846C12.8941 13.3912 12.8416 13.5297 12.8416 13.669C12.8416 13.8101 12.8958 13.9503 13.0033 14.0578C13.2201 14.2703 13.565 14.2677 13.7775 14.0527L17.7816 10.0004L13.7775 5.94728C13.565 5.73307 13.2201 5.73045 13.0033 5.94294C12.7891 6.15542 12.7874 6.50121 12.999 6.71542ZM6.88573 19.9999H0V0H6.88573C7.18679 0 7.43192 0.245142 7.43192 0.5462C7.43192 0.848153 7.18679 1.09246 6.88573 1.09246H1.09329V18.9075H6.88573C7.18679 18.9075 7.43192 19.1518 7.43192 19.4538C7.43192 19.7557 7.18679 20 6.88573 20V19.9999Z" fill="#465A64"/>
</svg>
